HIERARCHY
ROOT hip
{
	OFFSET 0.000000 0.000000 0.000000 
	CHANNELS 6 Xposition Yposition Zposition Xrotation Zrotation Yrotation
	JOINT abdomen
	{
		OFFSET 0.000000 3.402643 0.000000 
		CHANNELS 3 Xrotation Zrotation Yrotation
		JOINT chest
		{
			OFFSET 0.000000 8.438565 -0.680529 
			CHANNELS 3 Xrotation Zrotation Yrotation
			JOINT neck
			{
				OFFSET 0.000000 10.207942 -0.272212 
				CHANNELS 3 Xrotation Zrotation Yrotation
				JOINT head
				{
					OFFSET 0.000000 3.130431 0.000000 
					CHANNELS 3 Xrotation Zrotation Yrotation
					End Site
					{
						OFFSET 0.000000 3.130435 0.000000 
					}
				}
			}
			JOINT lCollar
			{
				OFFSET 3.470700 6.669187 -0.816635 
				CHANNELS 3 Yrotation Zrotation Xrotation
				JOINT lShldr
				{
					OFFSET 3.198488 0.000000 0.000000 
					CHANNELS 3 Zrotation Yrotation Xrotation
					JOINT lForeArm
					{
						OFFSET 10.139888 0.000000 0.000000 
						CHANNELS 3 Yrotation Zrotation Xrotation
						JOINT lHand
						{
							OFFSET 8.370511 0.000000 0.000000 
							CHANNELS 3 Zrotation Yrotation Xrotation
							End Site
							{
								OFFSET 4.083176 0.000000 0.000000 
							}
						}
					}
				}
			}
			JOINT rCollar
			{
				OFFSET -3.470700 6.669187 -0.816635 
				CHANNELS 3 Yrotation Zrotation Xrotation
				JOINT rShldr
				{
					OFFSET -3.198488 0.000000 0.000000 
					CHANNELS 3 Zrotation Yrotation Xrotation
					JOINT rForeArm
					{
						OFFSET -10.139888 0.000000 0.000000 
						CHANNELS 3 Yrotation Zrotation Xrotation
						JOINT rHand
						{
							OFFSET -8.370511 0.000000 0.000000 
							CHANNELS 3 Zrotation Yrotation Xrotation
							End Site
							{
								OFFSET -4.083176 0.000000 0.000000 
							}
						}
					}
				}
			}
		}
	}
	JOINT lThigh
	{
		OFFSET 5.308129 -1.633274 1.361059 
		CHANNELS 3 Xrotation Zrotation Yrotation
		JOINT lShin
		{
			OFFSET -2.041588 -20.007561 0.000000 
			CHANNELS 3 Xrotation Zrotation Yrotation
			JOINT lFoot
			{
				OFFSET 0.000000 -19.190928 -1.224953 
				CHANNELS 3 Xrotation Yrotation Zrotation
				End Site
				{
					OFFSET 0.000000 -2.449906 4.627600 
				}
			}
		}
	}
	JOINT rThigh
	{
		OFFSET -5.308129 -1.633274 1.361059 
		CHANNELS 3 Xrotation Zrotation Yrotation
		JOINT rShin
		{
			OFFSET 2.041588 -20.007561 0.000000 
			CHANNELS 3 Xrotation Zrotation Yrotation
			JOINT rFoot
			{
				OFFSET 0.000000 -19.190928 -1.224953 
				CHANNELS 3 Xrotation Yrotation Zrotation
				End Site
				{
					OFFSET 0.000000 -2.449906 4.627600 
				}
			}
		}
	}
}
MOTION
Frames: 20
Frame Time: 0.016667
11.419847 62.395344 -2.090732 26.539284 -14.401793 13.850839 -13.901408 2.258417 4.574067 0.000000 0.000000 0.000000 -1.252083 4.037159 -24.733297 0.000000 0.000000 0.000000 0.000000 0.000000 0.000000 58.640774 -5.857495 -41.427284 -30.399014 35.870739 -7.695251 30.670012 -6.327449 2.375704 0.000000 0.000000 0.000000 -56.504620 5.247407 -33.841335 37.208355 -29.688633 6.631957 -42.408150 19.059189 -1.298348 -80.569717 12.167447 -2.169757 116.757019 -7.503653 -17.427177 59.104729 -11.642009 2.235649 -82.741760 -11.874884 10.257484 99.251717 6.456213 21.313395 53.205223 11.944986 -3.343459 
11.924750 61.790695 -3.275409 28.166510 -11.157306 6.170361 -14.072079 1.389759 5.626893 0.000000 0.000000 0.000000 -1.865762 4.008743 -19.727961 0.000000 0.000000 0.000000 0.000000 0.000000 0.000000 62.297226 -5.383330 -44.656223 -18.356707 26.427057 -16.207432 25.509298 -5.345084 2.113966 0.000000 0.000000 0.000000 -63.450809 8.903857 -41.265278 22.078129 -21.919125 -5.061800 -38.104507 15.061845 0.810292 -91.240112 20.137033 -10.209465 128.035522 -2.449411 -20.625654 60.525993 -13.817535 2.475324 -97.426094 -18.027573 14.354281 114.132385 4.598323 25.414999 52.659557 12.289705 -3.235596 
12.432704 61.180592 -4.445248 29.277721 -7.722612 -1.311979 -14.219494 0.494676 6.670178 0.000000 0.000000 0.000000 -2.474348 4.033613 -14.714747 0.000000 0.000000 0.000000 0.000000 0.000000 0.000000 65.823463 -4.720977 -47.767735 -8.745391 15.917953 -21.942745 20.375296 -4.412685 1.688798 0.000000 0.000000 0.000000 -70.798035 11.608262 -49.083794 9.623331 -11.968405 -13.737891 -33.995842 10.974407 2.540969 -103.477730 26.406298 -20.097881 138.881332 3.087269 -22.720114 61.880653 -15.943934 2.708299 -112.968178 -22.910480 20.126293 128.658295 1.810560 28.833572 52.100925 12.666267 -3.108575 
13.298529 59.932178 -3.897577 25.818195 -2.491708 -6.881630 -10.377423 -2.525700 5.884364 0.000000 0.000000 0.000000 -2.715524 3.584414 -8.385620 0.000000 0.000000 0.000000 0.000000 0.000000 0.000000 59.859161 -4.460936 -43.161915 -11.421979 19.559641 -21.762394 19.814800 -6.419974 -7.090001 0.000000 0.000000 0.000000 -67.861366 14.362339 -48.484921 12.182837 -13.503757 -14.106061 -26.500841 11.439478 0.494247 -101.995895 32.421604 -23.346498 134.143921 3.157591 -19.616747 53.806774 -16.346434 -0.587155 -114.600792 -24.834623 25.420757 128.163879 2.274218 29.491415 48.528183 13.916245 0.518271 
14.165875 58.684097 -3.349808 21.887714 2.362269 -12.745107 -6.494705 -5.487842 4.895486 0.000000 0.000000 0.000000 -2.994926 3.152236 -2.073086 0.000000 0.000000 0.000000 0.000000 0.000000 0.000000 53.858673 -3.761840 -38.593491 -14.284290 23.274078 -21.364082 19.552462 -8.480099 -15.951767 0.000000 0.000000 0.000000 -64.776482 17.058092 -47.643974 14.883244 -15.155763 -14.384605 -18.956385 12.176291 -1.564660 -100.737671 38.466503 -26.553560 129.316238 3.442522 -16.563902 45.705612 -16.292215 -3.941153 -116.338570 -26.612648 30.785770 127.524178 2.740995 30.123022 44.819874 14.936672 4.230598 
15.210269 57.474800 -2.790580 19.001844 6.657036 -17.642107 -4.762679 -8.134259 4.043700 0.000000 0.000000 0.000000 -3.478087 1.891571 3.204924 0.000000 0.000000 0.000000 0.000000 0.000000 0.000000 38.926533 -4.328073 -31.616207 -30.765184 36.785881 -14.625819 18.714565 -10.358630 -31.457184 0.000000 0.000000 0.000000 -52.205612 17.171972 -37.556324 33.147327 -29.080204 -9.797576 -4.922234 16.324778 -13.205612 -88.287231 38.788200 -16.920607 115.571991 1.019952 -13.621229 35.728271 -15.222996 -7.687674 -104.540665 -27.383963 27.974607 110.584846 3.834223 27.087833 36.970135 16.349033 7.289824 
16.249823 56.259956 -2.228766 15.740401 10.663469 -22.787771 -2.973252 -10.746225 3.110416 0.000000 0.000000 0.000000 -4.097243 0.685820 8.457707 0.000000 0.000000 0.000000 0.000000 0.000000 0.000000 24.035128 -3.106937 -24.718021 -52.961765 47.606857 -1.131534 18.381931 -12.398507 -46.986980 0.000000 0.000000 0.000000 -39.817230 15.183461 -27.714655 55.875393 -40.575775 0.962432 8.395074 22.994347 -23.764095 -76.025398 37.466873 -7.527892 101.684738 -0.637498 -10.226776 25.976988 -13.529514 -11.171302 -92.625900 -27.626780 25.027456 93.585220 4.026068 23.907444 29.021351 17.308916 10.514524 
16.737242 54.395737 -1.364752 14.472552 13.112330 -26.262100 -0.256514 -11.637605 2.721487 0.000000 0.000000 0.000000 -9.170699 -0.334732 11.670118 0.000000 0.000000 0.000000 0.000000 0.000000 0.000000 7.534920 -2.193208 -16.472725 -78.079445 47.412895 18.676023 14.267521 -16.877260 -56.006721 0.000000 0.000000 0.000000 -22.518099 9.817038 -17.472937 81.971756 -37.462482 12.884981 20.862600 27.532019 -28.208298 -64.288597 31.987986 -0.552261 83.365257 -3.055661 -9.300713 22.873959 -12.206395 -13.156439 -77.227501 -27.128759 23.078066 70.832771 7.355521 22.012890 25.962120 16.226593 12.747509 
17.223219 52.513653 -0.499644 13.045174 15.478506 -29.836876 2.472707 -12.500083 2.288974 0.000000 0.000000 0.000000 -14.327886 -1.066104 14.963558 0.000000 0.000000 0.000000 0.000000 0.000000 0.000000 -8.658452 0.953366 -8.762781 -100.349014 41.873249 35.596207 10.831020 -21.865879 -64.763145 0.000000 0.000000 0.000000 -6.567643 1.894018 -9.328714 105.096352 -30.825041 21.354374 33.403191 32.798637 -31.572294 -54.015125 25.542000 4.683060 65.008080 -5.064204 -7.704319 19.828547 -10.726667 -15.059821 -62.053356 -26.200777 21.376314 47.942722 9.661115 18.986876 22.909241 15.001324 14.918265 
17.540947 48.594978 0.485236 11.764105 17.926813 -34.885208 4.221336 -12.745792 3.082291 0.000000 0.000000 0.000000 -22.510633 -0.838692 19.308779 0.000000 0.000000 0.000000 0.000000 0.000000 0.000000 -25.006882 1.642575 5.107873 -94.950310 40.405991 32.706310 6.010873 -20.363192 -54.332851 0.000000 0.000000 0.000000 13.695031 -0.408300 3.860720 95.529121 -30.384598 14.881686 30.449995 34.969868 -31.745169 -46.144012 19.868111 7.589653 51.433426 -6.077804 -5.572092 15.456336 -7.106900 -16.634398 -55.597702 -24.794518 22.886635 38.246872 9.642039 15.249513 15.293186 11.358708 15.509488 
17.867064 44.712875 1.456121 10.211343 20.218920 -40.076576 5.963797 -13.008410 3.868290 0.000000 0.000000 0.000000 -30.611330 0.008951 23.564453 0.000000 0.000000 0.000000 0.000000 0.000000 0.000000 -40.718426 6.094274 18.246092 -89.508888 38.754601 29.871569 1.652947 -18.026939 -44.120571 0.000000 0.000000 0.000000 32.990047 -6.948487 15.478968 85.971420 -28.984919 8.563598 27.353703 37.058128 -32.034954 -38.859997 13.921689 9.602959 37.989075 -6.534705 -3.324171 11.094649 -3.294467 -17.894663 -49.233494 -23.544575 24.472494 28.728436 8.935064 11.675149 7.787565 7.696529 15.595145 
19.162144 45.054363 0.810261 6.513710 18.111433 -46.982365 6.136344 -11.598813 4.923778 0.000000 0.000000 0.000000 -33.041931 2.146441 26.700083 0.000000 0.000000 0.000000 0.000000 0.000000 0.000000 -51.181423 5.271781 27.551376 -56.469391 32.618290 7.718023 4.187650 -10.062783 -25.427298 0.000000 0.000000 0.000000 47.476650 -3.474312 23.884508 56.943348 -17.999403 -1.658168 17.200603 31.030123 -29.557152 -35.493793 12.175392 9.806655 41.353752 -6.105971 -2.975349 -2.308665 3.706281 -15.011282 -49.097645 -20.742002 19.979168 35.873165 3.921146 17.522144 -2.429535 6.047146 12.116176 
20.446198 45.392685 0.170936 3.166761 15.601274 -53.591057 6.335613 -10.190047 5.953213 0.000000 0.000000 0.000000 -35.337502 4.396615 29.705940 0.000000 0.000000 0.000000 0.000000 0.000000 0.000000 -61.593056 6.122637 36.830589 -30.449585 18.466373 -6.266480 9.082068 -3.361578 -6.838618 0.000000 0.000000 0.000000 62.211979 -2.218561 32.795807 31.509298 -4.050387 -4.993475 7.385453 25.456675 -26.121149 -32.169296 10.444630 9.925683 44.726677 -5.666498 -2.642623 -16.163778 9.767036 -10.534618 -49.173859 -17.948578 15.616755 42.443722 -1.712276 22.648680 -12.636349 5.047890 8.450167 
20.456692 45.364697 0.285735 2.005728 11.611247 -52.796368 8.225585 -7.841926 4.050691 0.000000 0.000000 0.000000 -34.812122 4.644894 28.913073 0.000000 0.000000 0.000000 0.000000 0.000000 0.000000 -65.667030 4.242638 43.455448 -16.767530 6.399724 -14.004020 13.510215 -4.533838 -5.924313 0.000000 0.000000 0.000000 68.804955 -1.171338 33.905415 22.521437 -0.249017 -1.542537 6.969994 20.133886 -27.908798 -30.472557 12.388618 10.707891 49.918884 -3.978157 -4.015479 -21.142374 8.593773 -9.966592 -47.460629 -17.323380 15.316731 47.547474 -2.046987 21.751608 -15.893577 5.398347 8.288386 
20.467937 45.338306 0.401233 0.821802 7.662299 -51.916626 10.008693 -5.464499 2.266062 0.000000 0.000000 0.000000 -34.280457 4.905057 28.100533 0.000000 0.000000 0.000000 0.000000 0.000000 0.000000 -69.882835 2.856016 50.124630 -4.897340 -6.898788 -18.657162 17.870031 -5.759422 -5.100221 0.000000 0.000000 0.000000 75.368736 -0.276984 35.115223 13.393059 2.937344 2.443254 6.733182 14.848239 -29.590408 -28.723909 14.281982 11.555350 54.959167 -2.192108 -5.220761 -26.015104 7.380655 -9.496781 -45.738575 -16.708742 15.028593 52.599419 -2.279911 20.860083 -19.112661 5.721152 8.127214 
20.565018 45.495052 0.597114 0.732750 7.230718 -50.240681 9.562540 -5.111470 2.715194 0.000000 0.000000 0.000000 -32.703518 4.613929 25.911139 0.000000 0.000000 0.000000 0.000000 0.000000 0.000000 -69.704895 3.169367 51.177692 -5.939637 -6.039929 -18.218298 17.114685 -5.624691 -5.763545 0.000000 0.000000 0.000000 75.713638 -1.403236 36.093983 12.877707 2.286380 3.704184 6.300776 14.501007 -30.512323 -26.529221 13.492887 11.663182 51.463070 -2.445267 -4.580067 -24.213913 6.730262 -9.472312 -42.264019 -17.099340 13.892293 49.169575 -1.062150 19.831743 -18.023733 5.770126 7.664526 
20.662134 45.658482 0.793658 0.639181 6.794499 -48.558578 9.121932 -4.758389 3.164476 0.000000 0.000000 0.000000 -31.092394 4.392290 23.697527 0.000000 0.000000 0.000000 0.000000 0.000000 0.000000 -69.510124 3.475001 52.236244 -6.995874 -5.176664 -17.756126 16.339735 -5.499429 -6.436165 0.000000 0.000000 0.000000 76.043388 -2.552870 37.065674 12.377676 1.620573 4.959854 5.872545 14.139030 -31.431568 -24.322651 12.712071 11.736364 47.945381 -2.676507 -3.896921 -22.441288 6.073657 -9.428691 -38.750092 -17.410315 12.745545 45.712185 0.107523 18.714035 -16.905985 5.817554 7.202266 
20.762798 46.582191 1.064563 0.699906 6.240993 -45.806820 8.144838 -4.324706 4.132168 0.000000 0.000000 0.000000 -28.372824 4.293440 19.745481 0.000000 0.000000 0.000000 0.000000 0.000000 0.000000 -68.885223 4.330566 53.787628 -9.780879 -2.982354 -16.444735 15.086100 -5.283288 -8.873863 0.000000 0.000000 0.000000 76.289009 -5.665274 38.838757 12.266545 0.070483 7.893848 5.301917 13.721360 -33.143879 -20.911081 11.507783 11.942475 41.687347 -2.772523 -3.062994 -19.381557 5.093391 -9.384763 -33.376575 -17.577330 10.549406 40.506073 1.937322 16.132793 -15.098837 5.622878 6.360279 
20.862568 47.504494 1.335818 0.742506 5.688110 -43.064919 7.174109 -3.881167 5.089584 0.000000 0.000000 0.000000 -25.642355 4.398546 15.790485 0.000000 0.000000 0.000000 0.000000 0.000000 0.000000 -68.232193 5.173055 55.359859 -12.639788 -0.848497 -15.010748 13.812039 -5.114820 -11.354009 0.000000 0.000000 0.000000 76.441582 -8.814113 40.610561 12.257620 -1.478236 10.842871 4.739534 13.293950 -34.853928 -17.542788 10.297122 12.083190 35.466339 -2.794800 -2.223741 -16.368460 4.077200 -9.281585 -28.019211 -17.555128 8.384610 35.217743 3.549725 13.375797 -13.288435 5.371153 5.494297 
20.859873 48.265858 1.646747 1.165758 5.602412 -39.885952 5.154107 -3.720600 5.881442 0.000000 0.000000 0.000000 -22.896687 5.090665 11.550627 0.000000 0.000000 0.000000 0.000000 0.000000 0.000000 -66.413071 7.063791 56.850086 -18.312790 2.824172 -12.406542 12.253607 -4.890759 -17.579998 0.000000 0.000000 0.000000 76.074104 -14.779660 42.646770 13.772684 -3.668554 15.202669 4.528453 13.335803 -37.340611 -14.185596 8.795113 12.253970 27.931984 -2.408032 -0.582267 -12.251984 2.342872 -9.602424 -23.184475 -17.211723 6.039762 29.868557 5.414665 9.577435 -11.408314 4.340496 4.180491 
